<?xml version="1.0" encoding="UTF-8"?>
<svg id="Layer_1" data-name="Layer 1" xmlns="http://www.w3.org/2000/svg" viewBox="0 0 608.17 354">
  <defs>
    <style>
      .cls-1 {
        fill: #3088ba;
      }
    </style>
  </defs>
  <path class="cls-1" d="m467.15,127.23v65.04s55.75,6.48,54.06-36.04c0,0,5.63-32.66-54.06-29Z"/>
  <path class="cls-1" d="m304.08,0C136.14,0,0,79.25,0,177s136.14,177,304.08,177,304.08-79.25,304.08-177S472.03,0,304.08,0Zm-98.19,312.93h-63.07L63.43,82.61h61.38l48.99,172.88,50.12-172.88h59.69l-77.71,230.32Zm159.83-.25h-57.44V83.5h57.44v229.19Zm101.42-77.33v77.58h-56.03l-1.13-229.43,84.19,1.5s85.31,6.48,81.93,69.55c-3.38,63.07-50.12,80.53-108.96,80.81Z"/>
</svg>