<?xml version="1.0" encoding="utf-8"?>
<!-- Generator: Adobe Illustrator 27.1.1, SVG Export Plug-In . SVG Version: 6.00 Build 0)  -->
<svg version="1.1" id="Layer_1" xmlns="http://www.w3.org/2000/svg" xmlns:xlink="http://www.w3.org/1999/xlink" x="0px" y="0px"
	 viewBox="0 0 612 366.67" style="enable-background:new 0 0 612 366.67;" xml:space="preserve">
<style type="text/css">
	.st0{fill:#3088BA;}
</style>
<g>
	<path class="st0" d="M469.56,133.95v65.04c0,0,55.75,6.48,54.06-36.04C523.62,162.96,529.25,130.29,469.56,133.95z"/>
	<g>
		<path class="st0" d="M306.5,6.72c-167.94,0-304.08,79.25-304.08,177s136.14,177,304.08,177s304.08-79.25,304.08-177
			S474.44,6.72,306.5,6.72z M208.31,319.65h-63.07L65.84,89.34h61.38l48.99,172.88l50.12-172.88h59.69L208.31,319.65z
			 M368.14,319.41H310.7V90.22h57.44V319.41z M469.56,242.07v77.58h-56.03L412.4,90.22l84.19,1.5c0,0,85.31,6.48,81.93,69.55
			S528.41,241.79,469.56,242.07z"/>
	</g>
</g>
</svg>
